<?xml version="1.0" standalone="no"?>
<!DOCTYPE svg PUBLIC "-//W3C//DTD SVG 20010904//EN"
 "http://www.w3.org/TR/2001/REC-SVG-20010904/DTD/svg10.dtd">
<svg version="1.0" xmlns="http://www.w3.org/2000/svg"
 width="321.000000pt" height="33.000000pt" viewBox="0 0 321.000000 33.000000"
 preserveAspectRatio="xMidYMid meet">

<g transform="translate(0.000000,33.000000) scale(0.100000,-0.100000)"
fill="#000000" stroke="none">
<path d="M274 299 c-4 -7 -2 -15 4 -17 15 -5 17 -208 2 -217 -17 -11 0 -25 30
-25 33 0 49 17 26 26 -33 13 -13 108 26 123 32 12 46 -5 54 -63 6 -40 4 -50
-10 -58 -23 -13 -10 -28 24 -28 30 0 47 14 30 25 -5 3 -10 21 -10 38 0 43 -17
99 -32 109 -21 13 -55 9 -68 -7 -22 -26 -29 -17 -32 42 -2 44 -7 59 -20 61 -9
2 -20 -3 -24 -9z"/>
<path d="M2261 297 c-25 -31 13 -66 46 -42 14 11 16 18 7 32 -14 23 -38 28
-53 10z"/>
<path d="M1510 286 c0 -8 5 -18 10 -21 14 -9 13 -168 -1 -182 -22 -22 -2 -43
41 -43 43 0 63 21 41 43 -6 6 -11 20 -11 32 0 15 9 8 33 -28 27 -40 36 -47 62
-45 36 4 48 36 16 45 -11 3 -28 16 -37 30 -17 27 -17 28 29 54 9 5 17 19 17
29 0 17 -7 20 -45 20 -50 0 -72 -23 -42 -45 14 -10 14 -12 -4 -23 -10 -7 -21
-12 -23 -12 -3 0 -6 35 -8 78 l-3 77 -37 3 c-29 2 -38 -1 -38 -12z"/>
<path d="M2400 285 c0 -8 7 -18 15 -21 23 -9 21 -162 -2 -179 -28 -21 -9 -45
37 -45 43 0 61 19 42 43 -6 7 -13 58 -14 113 l-3 99 -37 3 c-29 2 -38 0 -38
-13z"/>
<path d="M10 260 c0 -16 5 -30 10 -30 6 0 10 7 10 15 0 10 10 15 30 15 l30 0
0 -95 c0 -57 -4 -95 -10 -95 -5 0 -10 -7 -10 -15 0 -10 11 -15 35 -15 34 0 46
12 25 25 -6 3 -10 48 -10 101 l0 94 30 0 c20 0 30 -5 30 -15 0 -8 5 -15 10
-15 6 0 10 14 10 30 l0 30 -95 0 -95 0 0 -30z"/>
<path d="M812 265 c-75 -63 -34 -225 58 -225 52 0 90 26 90 63 0 22 -16 22
-47 -3 -32 -25 -38 -25 -63 0 -25 25 -28 111 -4 134 24 24 51 20 58 -10 9 -36
50 -30 54 8 7 57 -91 80 -146 33z"/>
<path d="M2570 280 c0 -5 5 -10 10 -10 13 0 13 -197 0 -205 -42 -26 91 -35
140 -10 39 20 60 63 60 123 0 53 -21 85 -67 103 -33 12 -143 12 -143 -1z m160
-42 c14 -16 20 -35 20 -70 0 -65 -31 -98 -90 -98 l-40 0 0 95 0 95 45 0 c33 0
50 -6 65 -22z"/>
<path d="M2870 281 c0 -6 5 -13 10 -16 6 -3 10 -48 10 -101 0 -56 -4 -94 -10
-94 -5 0 -10 -7 -10 -16 0 -14 11 -16 71 -12 63 3 74 7 95 31 30 35 30 61 0
84 l-23 18 19 26 c24 32 17 61 -18 77 -30 14 -144 16 -144 3z m139 -40 c14
-26 -6 -48 -51 -56 l-38 -7 0 41 0 41 40 0 c28 0 42 -5 49 -19z m5 -97 c35
-34 6 -74 -55 -74 l-39 0 0 45 0 45 39 0 c23 0 46 -7 55 -16z"/>
<path d="M1817 264 c-4 -4 -7 -15 -7 -25 0 -9 -7 -19 -15 -23 -8 -3 -15 -12
-15 -21 0 -8 7 -15 15 -15 11 0 15 -12 15 -50 0 -75 44 -110 101 -80 22 12 26
50 5 50 -8 0 -17 -4 -21 -10 -3 -5 -12 -7 -20 -3 -10 3 -15 20 -15 49 0 39 2
44 23 44 13 0 26 3 30 6 12 12 -6 34 -28 34 -17 0 -25 7 -27 22 -3 23 -27 35
-41 22z"/>
<path d="M561 194 c-32 -40 -29 -106 5 -133 36 -28 88 -28 109 1 19 28 4 35
-29 12 -24 -15 -28 -15 -51 0 -45 29 -32 46 35 46 60 0 60 0 60 30 0 65 -88
96 -129 44z m87 -6 c25 -25 13 -38 -33 -38 -33 0 -45 4 -45 15 0 29 56 45 78
23z"/>
<path d="M1085 208 c-53 -30 -62 -102 -19 -145 22 -21 32 -25 66 -20 56 8 81
35 81 88 0 34 -6 47 -27 66 -29 25 -69 29 -101 11z m59 -34 c19 -7 22 -64 4
-82 -32 -32 -71 17 -50 63 12 26 20 29 46 19z"/>
<path d="M1333 210 c-28 -12 -43 -40 -43 -85 0 -43 36 -85 74 -85 38 0 76 21
76 42 0 21 -4 22 -32 7 -32 -17 -68 3 -68 39 0 45 33 69 45 32 7 -21 49 -28
60 -10 11 18 -4 47 -31 58 -29 14 -50 14 -81 2z"/>
<path d="M2028 209 c-24 -13 -23 -49 0 -49 10 0 23 5 29 11 15 15 43 4 43 -16
0 -10 -10 -15 -31 -15 -43 0 -69 -17 -69 -45 0 -46 53 -72 81 -39 11 14 13 14
21 0 12 -21 67 -21 74 -1 4 8 2 21 -4 28 -5 6 -13 32 -17 56 -4 24 -16 52 -26
62 -21 21 -73 25 -101 8z m70 -106 c-4 -22 -48 -31 -48 -10 0 19 10 27 32 27
13 0 18 -6 16 -17z"/>
<path d="M2252 212 c-13 -9 -6 -42 9 -42 16 0 10 -78 -6 -88 -29 -16 -6 -42
36 -42 42 0 60 19 41 43 -6 7 -12 40 -14 72 -3 56 -5 60 -28 63 -14 1 -31 -2
-38 -6z"/>
</g>
</svg>
